# xmcd CD database file
#
# Track frame offsets:
#	150
#	25085
#	47569
#	73093
#	91688
#	106647
#	133287
#	153730
#	171721
#	198247
#	218647
#	242449
#	256184
#	281012
#	301337
#
# Disc length: 4190 seconds
#
# Revision: 1
# Processed by: cddbd v1.5.2PL0 Copyright (c) Steve Scherf et al.
# Submitted via: CDex 1.70beta2
#
DISCID=cd105c0f
DTITLE=Claude Challe - Six Senses
DYEAR=2009
DGENRE=Lounge
TTITLE0=Olivier Renoir - Mong Song
TTITLE1=Chin Chakrit - Purple
TTITLE2=Suvarna - Heart Of Tara
TTITLE3=Cellar 55 - Close To Home
TTITLE4=Nitin Sawhney Ft Ojos De Brujo - Shadowland
TTITLE5=Bliss - A Quiet Conversation
TTITLE6=Tikaro, J Louis and Ferran FtClarence - Shine On Me (Sunlex Mix)
TTITLE7=Giacomo Bondi - The Sultan's Dream
TTITLE8=Frontera Ft Sophie Barker - A Baia
TTITLE9=Nacho Sotomayor - Dance Of Wind
TTITLE10=Mademoiselle Caro and Franck Garcia - Mon Ange
TTITLE11=Nitin Sawhney Ft Roxanne Tataei - Distand Dreams
TTITLE12=Sherrie Lea - No Ordinary Love (Taras Lounge Mix)
TTITLE13=Jojo Effect - Moods
TTITLE14=Nacho Sotomayor - Bye
EXTD=YEAR: 2009
EXTT0=
EXTT1=
EXTT2=
EXTT3=
EXTT4=
EXTT5=
EXTT6=
EXTT7=
EXTT8=
EXTT9=
EXTT10=
EXTT11=
EXTT12=
EXTT13=
EXTT14=
PLAYORDER=
